<svg xmlns="http://www.w3.org/2000/svg" xmlns:xlink="http://www.w3.org/1999/xlink" width="936" zoomAndPan="magnify" viewBox="0 0 702 465.749988" height="621" preserveAspectRatio="xMidYMid meet" version="1.0"><defs><filter x="0%" y="0%" width="100%" height="100%" id="d3acb589d3"><feColorMatrix values="0 0 0 0 1 0 0 0 0 1 0 0 0 0 1 0 0 0 1 0" color-interpolation-filters="sRGB"/></filter><clipPath id="c8ce2bc1c5"><path d="M 0.1875 0 L 690 0 L 690 455 L 0.1875 455 Z M 0.1875 0 " clip-rule="nonzero"/></clipPath><mask id="102c3dc684"><g filter="url(#d3acb589d3)"><rect x="-70.2" width="842.4" fill="#000000" y="-46.574999" height="558.899986" fill-opacity="0.3765"/></g></mask><clipPath id="b85db2612a"><path d="M 0.320312 1 L 689 1 L 689 453.246094 L 0.320312 453.246094 Z M 0.320312 1 " clip-rule="nonzero"/></clipPath><clipPath id="5890afc965"><rect x="0" width="690" y="0" height="455"/></clipPath></defs><g clip-path="url(#c8ce2bc1c5)"><g mask="url(#102c3dc684)"><g transform="matrix(1, 0, 0, 1, -0.000000000000000028, 0)"><g clip-path="url(#5890afc965)"><g clip-path="url(#b85db2612a)"><path fill="#cccccc" d="M 448.9375 21.519531 C 583.226562 68.398438 681.886719 193.511719 687.855469 344.167969 C 689.351562 381.996094 684.875 418.6875 675.300781 453.320312 L 674.171875 452.9375 C 683.617188 418.808594 687.925781 382.609375 686.253906 345.269531 C 685.890625 337.136719 685.230469 329.089844 684.320312 321.117188 C 656.792969 325.542969 628.78125 328.375 600.378906 329.601562 C 597.785156 361.195312 591.875 392.214844 583.15625 422.035156 L 582.339844 421.757812 C 591.03125 392.070312 596.804688 361.167969 599.203125 329.65625 C 575.910156 330.625 552.34375 330.5 528.585938 329.207031 C 512.695312 328.339844 496.972656 326.960938 481.390625 325.101562 C 476.816406 344.304688 471.558594 363.371094 465.671875 382.136719 L 465.199219 381.976562 C 471.078125 363.25 476.328125 344.203125 480.855469 325.027344 C 431.859375 319.148438 384.464844 308.449219 339.136719 293.4375 L 315.261719 361.199219 L 338.007812 293.054688 C 293.777344 278.324219 251.503906 259.5 211.628906 237.027344 C 204.164062 253.769531 197.140625 271.054688 190.652344 288.746094 L 190.179688 288.585938 C 196.679688 270.867188 203.714844 253.550781 211.160156 236.761719 C 179.058594 218.640625 148.503906 198.167969 119.734375 175.578125 C 104.882812 199.28125 92.027344 224.832031 81.570312 251.703125 L 80.695312 251.40625 C 91.199219 224.417969 104.035156 198.726562 118.824219 174.851562 C 99.351562 159.511719 80.683594 143.203125 62.910156 126.003906 C 37.292969 155.0625 16.519531 188.335938 1.785156 224.609375 L 0.625 224.214844 C 51.730469 98.507812 172.730469 7.667969 317.226562 1.957031 C 353.582031 0.519531 388.871094 4.578125 422.316406 13.382812 C 425.179688 14.0625 428.011719 14.804688 430.828125 15.609375 C 433.007812 16.128906 435.148438 16.78125 437.238281 17.539062 C 437.40625 17.601562 437.566406 17.679688 437.730469 17.742188 C 439.21875 18.226562 440.71875 18.703125 442.195312 19.222656 C 442.488281 19.324219 442.773438 19.449219 443.0625 19.550781 C 445.023438 20.199219 446.992188 20.832031 448.9375 21.511719 Z M 437.066406 23.710938 C 436.214844 23.441406 435.363281 23.175781 434.507812 22.910156 L 420.097656 63.75 C 441.351562 70.589844 462.769531 75.878906 484.226562 79.6875 C 473.550781 51.175781 457.5 31.832031 437.066406 23.710938 Z M 428.828125 21.191406 C 428.308594 21.042969 427.78125 20.914062 427.257812 20.765625 C 412.484375 17.65625 395.773438 19.839844 377.378906 28.054688 C 370.855469 30.96875 364.304688 34.578125 357.738281 38.796875 C 375.367188 47.300781 393.671875 54.84375 412.640625 61.289062 C 413.480469 61.574219 414.320312 61.828125 415.160156 62.109375 Z M 461.523438 33.585938 C 472.503906 44.800781 481.40625 60.570312 487.929688 80.316406 C 501.554688 82.625 515.210938 84.332031 528.824219 85.460938 C 509.460938 63.46875 486.773438 45.894531 461.523438 33.585938 Z M 401.921875 15.339844 C 382.378906 12.570312 361.914062 12.570312 340.746094 15.613281 C 334.222656 16.550781 327.75 17.785156 321.316406 19.261719 C 332.015625 25.605469 343.019531 31.585938 354.3125 37.144531 C 362.535156 31.398438 370.761719 26.625 378.914062 22.910156 C 386.90625 19.269531 394.582031 16.761719 401.917969 15.339844 Z M 496.734375 48.65625 C 510.800781 59.273438 523.765625 71.773438 535.402344 85.980469 C 541.859375 86.429688 548.296875 86.730469 554.742188 86.917969 C 536.753906 72.390625 517.328125 59.550781 496.734375 48.65625 Z M 360.816406 8.445312 C 346.074219 7.125 331.097656 6.667969 315.9375 7.191406 C 311.621094 7.339844 307.3125 7.582031 303.039062 7.878906 C 307.230469 10.625 311.472656 13.320312 315.761719 15.941406 C 324.46875 13.617188 333.285156 11.761719 342.15625 10.429688 C 348.441406 9.488281 354.664062 8.855469 360.816406 8.445312 Z M 560.375 91.558594 C 553.320312 91.445312 546.246094 91.179688 539.167969 90.753906 C 552.425781 107.785156 563.875 127.085938 573.222656 148.332031 C 586.335938 147.839844 599.367188 146.875 612.300781 145.449219 C 596.921875 125.734375 579.507812 107.660156 560.375 91.558594 Z M 295.636719 8.476562 C 266.074219 11.148438 237.664062 17.375 210.792969 26.722656 C 220.34375 34.554688 230.1875 42.105469 240.304688 49.296875 C 262.441406 35.433594 285.730469 24.675781 309.78125 17.613281 C 305.003906 14.636719 300.285156 11.597656 295.636719 8.472656 Z M 533.039062 90.382812 C 533.03125 90.375 533.011719 90.382812 533.007812 90.375 C 518.515625 89.316406 503.988281 87.59375 489.460938 85.203125 C 494.738281 102.726562 498.253906 123.140625 499.835938 146.0625 C 523.234375 148.375 546.511719 149.148438 569.550781 148.445312 C 559.5 126.886719 547.234375 107.410156 533.039062 90.382812 Z M 314.960938 20.804688 C 290.058594 27.21875 265.933594 37.550781 243.042969 51.238281 C 261.652344 64.289062 281.1875 76.179688 301.558594 86.875 C 317.496094 68.027344 333.8125 52.21875 350.148438 40.164062 C 338.082031 34.15625 326.339844 27.695312 314.960938 20.804688 Z M 485.964844 84.605469 C 463.460938 80.730469 440.964844 75.230469 418.625 68.03125 L 398.132812 126.136719 C 414.675781 131.050781 431.59375 135.242188 448.886719 138.617188 C 465.28125 141.816406 481.667969 144.214844 497.980469 145.882812 C 496.003906 122.601562 491.910156 102.039062 485.964844 84.605469 Z M 353.34375 41.699219 C 336.484375 53.238281 319.621094 68.847656 303.164062 87.734375 C 331.910156 102.707031 362.320312 115.207031 394.203125 124.941406 L 413.753906 66.410156 C 412.925781 66.132812 412.09375 65.882812 411.265625 65.601562 C 391.199219 58.785156 371.890625 50.765625 353.34375 41.699219 Z M 614.0625 147.71875 C 600.867188 149.109375 587.554688 150.003906 574.167969 150.429688 C 585.007812 175.582031 592.898438 203.414062 597.433594 233.359375 C 618.449219 232.230469 639.292969 230.023438 659.902344 226.8125 C 648.066406 198.371094 632.574219 171.847656 614.0625 147.71875 Z M 208.65625 27.464844 C 182.832031 36.632812 158.480469 48.695312 135.941406 63.222656 C 149.300781 75.972656 163.273438 88.144531 177.800781 99.707031 C 196.746094 80.597656 217.203125 63.945312 238.796875 50.25 C 228.476562 42.976562 218.40625 35.390625 208.65625 27.464844 Z M 570.527344 150.527344 C 547.21875 151.113281 523.652344 150.238281 499.953125 147.78125 C 501.558594 172.675781 500.890625 200.472656 497.757812 230.703125 C 530.535156 234.226562 563.15625 235.105469 595.398438 233.476562 C 590.449219 203.445312 581.984375 175.609375 570.527344 150.523438 Z M 241.507812 52.152344 C 219.46875 65.503906 198.625 81.953125 179.339844 100.933594 C 203.121094 119.746094 228.402344 136.921875 255.097656 152.214844 C 269.621094 128.339844 284.925781 106.6875 300.617188 87.992188 C 280.039062 77.242188 260.324219 65.246094 241.507812 52.152344 Z M 498.101562 147.570312 C 482.273438 145.878906 466.386719 143.527344 450.472656 140.417969 C 432.472656 136.902344 414.882812 132.527344 397.671875 127.382812 L 370.84375 203.511719 C 384.890625 208.082031 399.1875 212.191406 413.75 215.808594 C 441.421875 222.683594 469.167969 227.566406 496.785156 230.578125 C 499.714844 200.226562 500.089844 172.386719 498.101562 147.570312 Z M 302.199219 88.808594 C 286.238281 107.261719 270.671875 128.804688 255.929688 152.671875 C 291.050781 172.722656 328.574219 189.558594 368.230469 202.660156 L 393.773438 126.199219 C 361.742188 116.371094 331.136719 103.808594 302.199219 88.808594 Z M 661.144531 229.933594 C 640.273438 233.035156 619.148438 235.140625 597.851562 236.128906 C 601.433594 261.015625 602.703125 287.339844 601.367188 314.800781 C 601.160156 319 600.882812 323.175781 600.558594 327.359375 C 628.789062 325.976562 656.652344 322.929688 684.023438 318.324219 C 680.246094 287.429688 672.421875 257.789062 661.144531 229.929688 Z M 133.972656 64.476562 C 108.5625 81.089844 85.535156 100.890625 65.398438 123.246094 C 82.902344 140.476562 101.3125 156.792969 120.515625 172.171875 C 136.96875 146.03125 155.757812 122.09375 176.382812 101.078125 C 161.671875 89.480469 147.515625 77.257812 133.972656 64.476562 Z M 595.832031 236.203125 C 563.394531 237.605469 530.550781 236.5 497.542969 232.753906 C 496.007812 247.113281 493.925781 262.007812 491.253906 277.398438 C 488.589844 292.742188 485.417969 308.089844 481.820312 323.351562 C 496.464844 325.0625 511.261719 326.3125 526.191406 327.128906 C 550.8125 328.46875 575.21875 328.535156 599.355469 327.394531 C 599.625 323.601562 599.878906 319.792969 600.050781 315.988281 C 601.292969 288.105469 599.789062 261.398438 595.828125 236.203125 Z M 177.917969 102.324219 C 157.027344 123.101562 138.007812 146.847656 121.425781 172.890625 C 149.957031 195.667969 180.261719 216.308594 212.160156 234.574219 C 225.082031 205.664062 239.253906 178.410156 254.296875 153.539062 C 227.425781 138.226562 201.914062 121.117188 177.917969 102.324219 Z M 496.609375 232.644531 C 469.628906 229.542969 442.5625 224.691406 415.503906 217.96875 C 400.171875 214.160156 385.132812 209.785156 370.355469 204.945312 L 339.757812 291.753906 C 384.980469 306.835938 432.316406 317.519531 481.285156 323.277344 C 484.742188 308.476562 487.765625 293.605469 490.3125 278.722656 C 493.035156 262.808594 495.121094 247.4375 496.601562 232.644531 Z M 255.125 154 C 239.933594 178.734375 225.625 205.941406 212.632812 234.839844 C 252.335938 257.535156 294.453125 276.546875 338.597656 291.359375 L 367.742188 204.09375 C 328.03125 190.890625 290.394531 174.027344 255.121094 153.996094 Z M 255.125 154 " fill-opacity="1" fill-rule="nonzero"/></g></g></g></g></g></svg>